<?xml version="1.0" encoding="UTF-8" standalone="no"?>
<!-- Created with Inkscape (http://www.inkscape.org/) -->

<svg
   width="1024px"
   height="1024px"
   viewBox="0 0 270.93332 270.93332"
   version="1.1"
   id="svg1"
   xmlns:inkscape="http://www.inkscape.org/namespaces/inkscape"
   xmlns="http://www.w3.org/2000/svg"
   xmlns:svg="http://www.w3.org/2000/svg">
  <defs
     id="defs1" />
  <g
     id="layer1">
    <ellipse
       style="fill:#000000;fill-opacity:1;stroke:none;"
       id="path1-2"
       cx="135.68283"
       cy="135.7594"
       rx="135.31201"
       ry="135.19656" />
    <ellipse
       style="fill:#dc3d36;fill-opacity:1;stroke:none;"
       id="path1-5"
       ry="120.83598"
       rx="120.76834"
       cy="135.97557"
       cx="135.12564" />
    <path
       style="fill:#000000;stroke-linejoin:round;"
       d="m 96.082031,57.464844 c -2.640442,0.106849 -5.175192,0.521402 -7.466797,1.259765 C 79.448816,61.678061 73.693758,66.862841 68.376953,71.970703 47.109735,92.402152 30.409498,117.36416 6.828125,117.84961 l 0.8164062,39.67773 C 55.8262,156.53546 82.072662,113.84789 95.873047,100.58984 c 0.453125,-0.43531 0.674789,-0.53532 1.089844,-0.896481 3.516359,6.119941 10.496289,19.700401 17.400389,42.753911 10.43865,34.85574 17.51056,54.39981 34.41406,66.8789 8.45176,6.23955 21.33473,8.10582 30.47852,5.18945 9.14379,-2.91636 15.14907,-8.05657 20.69141,-13.21289 22.16934,-20.62526 40.01767,-46.11832 62.61914,-46.625 L 261.67773,115 c -47.81324,1.07188 -74.22211,43.71734 -88.76367,57.24609 -1.04132,0.9688 -1.71886,1.40905 -2.55078,2.04688 -3.42829,-5.6398 -10.83781,-19.38235 -17.98047,-43.23242 -10.41127,-34.764349 -17.09293,-53.973644 -33.39453,-66.697269 -6.1131,-4.771359 -14.98492,-7.218986 -22.906249,-6.898437 z"
       id="path2" />
    <path
       style="fill:#ffffff;stroke-linecap:round;stroke-linejoin:round;"
       d="m 98.519531,68.283203 c -1.527386,-0.02528 -3.03578,0.144238 -4.484375,0.511719 -5.794377,1.469923 -10.405476,5.103182 -14.898437,9.408203 -17.971847,17.220084 -36.31479,47.972985 -64.048828,51.164065 a 6.6146002,6.6146002 0 0 0 -5.8144535,7.32812 6.6146002,6.6146002 0 0 0 7.3261715,5.81446 c 36.191743,-4.16422 56.716276,-40.40901 71.689453,-54.755864 3.743295,-3.586712 6.999277,-5.629173 9,-6.136719 2.000724,-0.507545 2.985448,-0.511992 5.771488,1.908204 5.57208,4.840391 14.47169,21.463479 24.41992,54.681639 10.18492,34.00854 18.34513,51.75915 29.36523,60.24219 5.51005,4.24152 12.49983,5.39874 18.33399,3.61133 5.83416,-1.78742 10.59056,-5.60106 15.26758,-10.10938 9.35403,-9.01662 18.56038,-21.5085 29.10742,-31.69922 10.54704,-10.19071 21.88814,-17.72392 35.11914,-18.26758 a 6.6146002,6.6146002 0 0 0 6.33789,-6.88085 6.6146002,6.6146002 0 0 0 -6.88086,-6.3379 c -17.89445,0.73528 -32.15829,10.7537 -43.76953,21.97266 -11.61124,11.21897 -21.11477,23.99445 -29.09571,31.6875 -3.99046,3.84653 -7.55841,6.24772 -9.96289,6.98438 -2.40447,0.73666 -3.569,0.72565 -6.38671,-1.44336 -5.63543,-4.33803 -14.82672,-20.38067 -24.76172,-53.55469 -10.17173,-33.96446 -18.08605,-51.897849 -28.41797,-60.873048 -3.87447,-3.365699 -8.63464,-5.180015 -13.216799,-5.255859 z"
       id="path2-8" />
  </g>
</svg>
