<?xml version="1.0" encoding="UTF-8" standalone="no"?>
<svg xmlns="http://www.w3.org/2000/svg" width="1024" height="1024" viewBox="0 -64 1024 1024">
   <path
      d="m 318.27734,-8.6289062 c -84.06282,0 -152.20898,68.1471502 -152.20898,152.2089862 v 13.83984 h -13.83789 c -84.062834,0 -152.20898562,68.14715 -152.20898562,152.20899 v 442.79101 c 0,84.06284 68.14715162,152.20899 152.20898562,152.20899 H 705.7207 c 84.06284,0 152.20899,-68.14715 152.20899,-152.20899 v -13.83789 h 13.83789 c 84.06282,0 152.20902,-68.14716 152.20902,-152.20898 V 143.58008 c 0,-84.062836 -68.1472,-152.2089862 -152.20902,-152.2089862 z m 0,83.0234372 h 553.49219 c 38.20992,0 69.18555,30.975629 69.18555,69.185549 l -1.4082,450.4043 -0.25391,0.13867 c -3.487,34.55292 -32.36175,61.3155 -67.51367,61.4375 h -0.0117 -553.48828 c -38.20992,0 -69.18555,-30.97758 -69.18555,-69.1875 V 569.41992 516.6875 c 130.63909,-1.95599 151.2843,-234.12924 200.85156,-233.92383 49.56726,0.20541 65.71525,228.47214 181.76581,228.12609 116.05056,-0.34605 128.00915,-229.65154 211.8631,-228.83507 24.85155,0.24198 44.70168,-20.8003 44.33984,-45.65039 -0.36196,-24.85009 -20.8015,-44.77616 -45.65039,-44.33985 C 701.56902,194.53482 672.09507,425.54918 631.38479,425.5957 590.67451,425.64222 567.2404,193.53702 446.18164,192.8418 325.12288,192.14658 311.36569,426.1733 249.09375,428.13672 l -0.002,-284.55664 c 0,-38.20992 30.97562,-69.185549 69.18554,-69.185549 z M 152.23047,240.44336 h 13.83789 V 586.375 c 0,84.06284 68.14716,152.20898 152.20898,152.20898 h 456.62891 l 0.002,13.8379 c 0,38.20992 -30.97562,69.18554 -69.18554,69.18554 H 152.23047 c -38.20992,0 -69.185548,-30.97562 -69.185548,-69.18554 V 309.62891 c 0,-38.20994 30.975628,-69.18555 69.185548,-69.18555 z"
   />
</svg>
