<?xml version="1.0" encoding="UTF-8" standalone="no"?>
<svg
   width="1024"
   height="1024"
   viewBox="0 -64 1024 1024"
   version="1.1"
   id="svg1"
   sodipodi:docname="sunmoon.svg"
   xml:space="preserve"
   inkscape:version="1.3.2 (091e20e, 2023-11-25, custom)"
   xmlns:inkscape="http://www.inkscape.org/namespaces/inkscape"
   xmlns:sodipodi="http://sodipodi.sourceforge.net/DTD/sodipodi-0.dtd"
   xmlns="http://www.w3.org/2000/svg"
   xmlns:svg="http://www.w3.org/2000/svg"><defs
     id="defs1"><clipPath
       clipPathUnits="userSpaceOnUse"
       id="clipPath18"><ellipse
         style="fill:#ffffff;fill-opacity:1;stroke:#000000;stroke-width:0;stroke-linecap:round;stroke-dasharray:none;stroke-opacity:1"
         id="ellipse18"
         cx="512.28149"
         cy="445.46674"
         rx="278.09561"
         ry="282.03625" /></clipPath></defs><sodipodi:namedview
     id="namedview1"
     pagecolor="#ffffff"
     bordercolor="#000000"
     borderopacity="0.25"
     inkscape:showpageshadow="2"
     inkscape:pageopacity="0.0"
     inkscape:pagecheckerboard="0"
     inkscape:deskcolor="#d1d1d1"
     inkscape:zoom="0.88818359"
     inkscape:cx="445.85377"
     inkscape:cy="646.82573"
     inkscape:window-width="3840"
     inkscape:window-height="2054"
     inkscape:window-x="-11"
     inkscape:window-y="-11"
     inkscape:window-maximized="1"
     inkscape:current-layer="svg1" /><path
     d="m 512.12029,153.54283 c -162.589,0 -294.395,131.804 -294.395,294.395 0,162.591 131.804,294.395 294.395,294.395 162.589,0 294.395,-131.804 294.395,-294.395 v 0 c -0.29,-162.471 -131.922,-294.103 -294.366,-294.395 h -0.028 z m 0,511.991 c -120.176,0 -217.596,-97.422 -217.596,-217.596 0,-120.174 97.422,-217.596 217.596,-217.596 120.176,0 217.596,97.422 217.596,217.596 v 0 c -0.29,120.058 -97.538,217.306 -217.567,217.596 h -0.028 z m 0,140.799 c -21.092,0.285 -38.115,17.308 -38.399,38.371 v 76.826 c 0,21.206 17.191,38.399 38.399,38.399 21.208,0 38.399,-17.191 38.399,-38.399 v 0 -76.799 c -0.285,-21.092 -17.308,-38.115 -38.371,-38.399 h -0.028 z m 0,-870.384995 c -21.092,0.285 -38.115,17.308 -38.399,38.371 v 76.826 c 0,21.206 17.191,38.399 38.399,38.399 21.208,0 38.399,-17.191 38.399,-38.399 v 0 -76.799 c -0.285,-21.092 -17.308,-38.115 -38.371,-38.399 h -0.028 z m 473.591,473.590995 h -76.799 c -21.206,0 -38.399,17.191 -38.399,38.399 0,21.208 17.191,38.399 38.399,38.399 v 0 h 76.799 c 21.20601,0 38.39901,-17.191 38.39901,-38.399 0,-21.208 -17.191,-38.399 -38.39901,-38.399 z m -870.385,0 H 38.527291 c -21.206001,0 -38.39900049,17.191 -38.39900049,38.399 0,21.208 17.19099949,38.399 38.39900049,38.399 v 0 h 76.798999 c 21.206,0 38.399,-17.191 38.399,-38.399 0,-21.208 -17.191,-38.399 -38.399,-38.399 z m 115.198,281.595 c -10.245,0.806 -19.244,5.574 -25.564,12.757 l -0.035,0.043 -55.808,51.2 c -7.14,7.14 -11.557,17.006 -11.557,27.903 0,21.794 17.667,39.461 39.461,39.461 10.897,0 20.763,-4.417 27.903,-11.557 v 0 l 51.2,-55.808 c 6.068,-6.763 9.778,-15.747 9.778,-25.599 0,-9.852 -3.711,-18.837 -9.81,-25.635 l 0.031,0.035 c -6.356,-7.223 -15.355,-11.995 -25.469,-12.791 l -0.131,-0.009 z m 617.463,-617.458995 c -0.052,0 -0.116,0 -0.178,0 -10.545,0 -20.084,4.307 -26.953,11.261 l -0.003,0.003 -52.736,55.807995 c -2.366,4.842 -3.748,10.533 -3.748,16.548 0,21.206 17.191,38.399 38.399,38.399 6.016,0 11.709,-1.383 16.778,-3.85 l -0.227,0.099 55.808,-51.2 c 6.939,-6.946 11.231,-16.541 11.231,-27.135 0,-10.594 -4.291,-20.188995 -11.231,-27.135995 v 0 c -6.701,-7.568 -16.317,-12.423 -27.072,-12.798 l -0.065,-10e-4 z m -54.271,617.458995 c -10.245,0.806 -19.244,5.574 -25.564,12.757 l -0.035,0.043 c -6.068,6.763 -9.778,15.747 -9.778,25.599 0,9.852 3.711,18.837 9.81,25.635 l -0.031,-0.035 51.2,55.808 c 7.14,7.14 17.006,11.557 27.903,11.557 21.794,0 39.461,-17.667 39.461,-39.461 0,-10.897 -4.417,-20.763 -11.557,-27.903 v 0 l -55.808,-51.2 c -6.356,-7.223 -15.355,-11.995 -25.469,-12.791 l -0.131,-0.009 z M 176.25329,73.674835 c -0.052,0 -0.116,0 -0.178,0 -10.545,0 -20.084,4.307 -26.953,11.261 l -0.003,0.003 c -6.939,6.946 -11.231,16.541005 -11.231,27.134995 0,10.594 4.291,20.189 11.231,27.136 v 0 l 55.808,52.736 c 4.842,2.366 10.533,3.748 16.548,3.748 21.206,0 38.399,-17.191 38.399,-38.399 0,-6.016 -1.383,-11.709 -3.85,-16.778 l 0.099,0.227 -51.2,-55.807995 c -6.876,-6.978 -16.43,-11.301 -26.992,-11.301 -0.591,0 -1.178,0.014 -1.761,0.042 l 0.082,-0.003 z"
     id="path1-5" /><ellipse
     style="fill:#000000;fill-opacity:1;stroke:#000000;stroke-width:0;stroke-linecap:round;stroke-dasharray:none;stroke-opacity:1"
     id="path17"
     cx="637.8186"
     cy="328.37384"
     rx="241.504"
     ry="247.13359"
     clip-path="url(#clipPath18)" /></svg>
